<svg xmlns="http://www.w3.org/2000/svg" viewBox="0 0 534.45 307.07"><defs><style>.a{isolation:isolate;}.b{fill:#38466b;}</style></defs><g class="a"><path class="b" d="M510.27,130a15.2,15.2,0,0,1-4.56,10.39,11.77,11.77,0,0,1-8.34,3.44c-5,0-7.16-3.39-7.11-6.82a15.58,15.58,0,0,1,5.15-11.08,11.32,11.32,0,0,1,7.65-3.09C508.31,122.84,510.27,126.47,510.27,130Zm-9.51-3.14c-1.77,2.2-4.86,8.09-4.86,12.8,0,1.22.59,2,1.52,2,1.23,0,2.31-1.13,3.63-3.29s3.73-7.6,3.73-11.33c0-1-.3-2.06-1.37-2.06C502.62,125,501.79,125.58,500.76,126.86Z" transform="translate(-4.22 -13.3)"/><path class="b" d="M524.25,126.07c-1.82,6.08-3.34,11.92-5.15,17.66-1,3.24-2.16,6.33-3.58,8.29a10.2,10.2,0,0,1-8,4.31c-2.5,0-5-1.17-5-3.77a3.41,3.41,0,0,1,3-3.14,1.51,1.51,0,0,1,1.38.78c1.22,2.21,2.4,3.48,2.94,3.48s1-.73,1.86-3.92l6.43-23.69h-4.61a2.27,2.27,0,0,1,.73-2.55h4.61a43.07,43.07,0,0,1,3.39-8.33c2.2-4,5.73-7.11,10.59-7.11,3.68,0,5.2,1.76,5.2,4a3.71,3.71,0,0,1-3.14,3.63c-.78,0-1.18-.59-1.42-1.43-.84-3.14-1.92-4.07-2.55-4.07s-1.62,1.18-2.7,3.63a62.29,62.29,0,0,0-3.24,9.66h5.59a2.18,2.18,0,0,1-.78,2.55Z" transform="translate(-4.22 -13.3)"/></g><g class="a"><g class="a"><path class="b" d="M63.31,80.63V40.55L48.79,69.69h-8.3L26,40.55V80.63H10.5V13.68H27.29l17.35,35,17.44-35h16.7V80.63Z" transform="translate(-4.22 -13.3)"/><path class="b" d="M131.3,81.2a31.13,31.13,0,0,1-13.58-2.93,33.5,33.5,0,0,1-10.47-7.68,35.11,35.11,0,0,1-6.74-10.89,34.39,34.39,0,0,1-2.4-12.64,33.53,33.53,0,0,1,2.49-12.73,33.76,33.76,0,0,1,17.59-18.25,32.1,32.1,0,0,1,13.39-2.78,31.27,31.27,0,0,1,13.58,2.92A33,33,0,0,1,155.63,24a35.4,35.4,0,0,1,9.05,23.38,33.31,33.31,0,0,1-2.5,12.73,33.89,33.89,0,0,1-17.49,18.3A31.67,31.67,0,0,1,131.3,81.2ZM113.85,47.25A24.77,24.77,0,0,0,115,54.74a19.92,19.92,0,0,0,3.34,6.46,16.47,16.47,0,0,0,5.52,4.53,16.26,16.26,0,0,0,7.54,1.7,16.06,16.06,0,0,0,7.74-1.79A16.86,16.86,0,0,0,144.6,61a20.5,20.5,0,0,0,3.25-6.51,25.83,25.83,0,0,0,1.08-7.4,24.88,24.88,0,0,0-1.13-7.5,18.85,18.85,0,0,0-3.39-6.41,16.92,16.92,0,0,0-5.52-4.43,16.37,16.37,0,0,0-7.5-1.65,16.06,16.06,0,0,0-7.68,1.74,17.24,17.24,0,0,0-5.47,4.58,19.23,19.23,0,0,0-3.3,6.45A25.57,25.57,0,0,0,113.85,47.25Z" transform="translate(-4.22 -13.3)"/><path class="b" d="M199.48,42.34V80.63H184V13.68h12.07L227.3,53V13.68h15.46V80.63H230.31Z" transform="translate(-4.22 -13.3)"/></g><g class="a"><path class="b" d="M315.84,27.26H295.47V80.63H280V27.26H259.54V13.68h56.3Z" transform="translate(-4.22 -13.3)"/></g><g class="a"><path class="b" d="M345.92,13.68h14L384.3,80.63H368.46l-5.19-15H342.43l-5.09,15H321.5ZM360.73,55,352.9,31.31l-8,23.67Z" transform="translate(-4.22 -13.3)"/><path class="b" d="M416.74,42.34V80.63H401.28V13.68h12.07L444.56,53V13.68H460V80.63H447.58Z" transform="translate(-4.22 -13.3)"/></g><g class="a"><path class="b" d="M500.29,13.68h14l24.42,66.95H522.83l-5.19-15H496.8l-5.09,15H475.87ZM515.1,55l-7.83-23.67-8,23.67Z" transform="translate(-4.22 -13.3)"/></g></g><g class="a"><path class="b" d="M10.37,319.63V254H34.86a36.11,36.11,0,0,1,14.23,2.59A28.65,28.65,0,0,1,65.5,274a38.44,38.44,0,0,1,2.08,12.7,37.93,37.93,0,0,1-2.31,13.54,29.31,29.31,0,0,1-6.61,10.35,29.77,29.77,0,0,1-10.35,6.65,36.84,36.84,0,0,1-13.45,2.36Zm41.77-32.9a25.51,25.51,0,0,0-1.15-7.9,17.67,17.67,0,0,0-3.38-6.14,14.61,14.61,0,0,0-5.45-4,18.41,18.41,0,0,0-7.3-1.38H25.53v39h9.33a17.59,17.59,0,0,0,7.4-1.48,14.89,14.89,0,0,0,5.4-4.11A18.61,18.61,0,0,0,51,294.54,25.15,25.15,0,0,0,52.14,286.73Z" transform="translate(-4.22 -13.3)"/><path class="b" d="M83.93,319.63V254H99.09v65.61Z" transform="translate(-4.22 -13.3)"/><path class="b" d="M158.41,273.24a8.94,8.94,0,0,0-1.94-1.39,37.63,37.63,0,0,0-4.16-2.12,39.44,39.44,0,0,0-5.45-1.94A21.51,21.51,0,0,0,141,267q-8.13,0-8.14,5.45a4.35,4.35,0,0,0,.88,2.77,7.87,7.87,0,0,0,2.59,2,24,24,0,0,0,4.3,1.61c1.72.5,3.72,1.05,6,1.67a77.14,77.14,0,0,1,8.51,2.82,22.8,22.8,0,0,1,6.42,3.79,15.37,15.37,0,0,1,4.06,5.49,19,19,0,0,1,1.44,7.77,19.55,19.55,0,0,1-2.08,9.38,17.61,17.61,0,0,1-5.5,6.19,23.29,23.29,0,0,1-7.86,3.42,39.48,39.48,0,0,1-9.14,1.06,51.07,51.07,0,0,1-7.4-.56,52,52,0,0,1-7.39-1.61,60.35,60.35,0,0,1-7-2.54,39.1,39.1,0,0,1-6.23-3.42L121.08,299a12.61,12.61,0,0,0,2.4,1.76,37.57,37.57,0,0,0,5,2.59,51.75,51.75,0,0,0,6.7,2.31,28.38,28.38,0,0,0,7.48,1q8,0,8-4.9a4.11,4.11,0,0,0-1.2-3,11.37,11.37,0,0,0-3.33-2.18,37.35,37.35,0,0,0-5-1.8q-2.91-.82-6.33-1.85a54.14,54.14,0,0,1-7.86-3,20.9,20.9,0,0,1-5.5-3.74,13.73,13.73,0,0,1-3.23-4.9,18,18,0,0,1-1.06-6.47,20.52,20.52,0,0,1,1.94-9.15,19.8,19.8,0,0,1,5.26-6.7,23,23,0,0,1,7.72-4.11,30.8,30.8,0,0,1,9.29-1.39,35.24,35.24,0,0,1,6.74.65,51.76,51.76,0,0,1,6.38,1.66,46.06,46.06,0,0,1,5.68,2.31q2.64,1.31,4.86,2.59Z" transform="translate(-4.22 -13.3)"/><path class="b" d="M232.8,267.33h-20v52.3H197.69v-52.3H177.63V254H232.8Z" transform="translate(-4.22 -13.3)"/><path class="b" d="M247.59,319.63V254h29.57a19.09,19.09,0,0,1,8.55,1.94A22.81,22.81,0,0,1,292.5,261a23.88,23.88,0,0,1,4.48,7.12,21.14,21.14,0,0,1,1.62,8,23.2,23.2,0,0,1-.74,5.87,22.77,22.77,0,0,1-2.13,5.31,20,20,0,0,1-7.85,7.85l14.41,24.4H285.2l-12.57-21.16h-9.89v21.16Zm15.15-34.38H276.6a5.66,5.66,0,0,0,4.62-2.54,10.37,10.37,0,0,0,1.94-6.51,9.15,9.15,0,0,0-2.21-6.47,6.52,6.52,0,0,0-4.81-2.4h-13.4Z" transform="translate(-4.22 -13.3)"/><path class="b" d="M316.89,319.63V254h15.16v65.61Z" transform="translate(-4.22 -13.3)"/><path class="b" d="M348.22,286.27a33.07,33.07,0,0,1,2.22-11.78A32.08,32.08,0,0,1,356.91,264a32.79,32.79,0,0,1,10.35-7.49,32.33,32.33,0,0,1,13.86-2.86,31.17,31.17,0,0,1,16,4A25.72,25.72,0,0,1,407.27,268l-11.64,8.13a13.56,13.56,0,0,0-2.82-4.29,15.39,15.39,0,0,0-7.9-4.25,21.5,21.5,0,0,0-4.16-.42,15.66,15.66,0,0,0-7.58,1.76,16.75,16.75,0,0,0-5.36,4.52,18.86,18.86,0,0,0-3.14,6.29,25.36,25.36,0,0,0-1,7.11,23.54,23.54,0,0,0,1.2,7.49,20,20,0,0,0,3.47,6.38,16.93,16.93,0,0,0,5.45,4.39,15.71,15.71,0,0,0,7.16,1.61,18.4,18.4,0,0,0,4.21-.51,16.78,16.78,0,0,0,4.16-1.57,14.74,14.74,0,0,0,3.65-2.77,13,13,0,0,0,2.68-4.2l12.38,7.3a19.4,19.4,0,0,1-4.39,6.47,26.87,26.87,0,0,1-6.7,4.8,36.62,36.62,0,0,1-16.36,4,29.37,29.37,0,0,1-13.07-2.91,33,33,0,0,1-10.26-7.71,35.23,35.23,0,0,1-6.65-10.91A34.09,34.09,0,0,1,348.22,286.27Z" transform="translate(-4.22 -13.3)"/><path class="b" d="M472.33,267.33h-20v52.3H437.21v-52.3h-20V254h55.17Z" transform="translate(-4.22 -13.3)"/><path class="b" d="M526.48,273.24a9.23,9.23,0,0,0-1.94-1.39,38.55,38.55,0,0,0-4.16-2.12,39.44,39.44,0,0,0-5.45-1.94A21.63,21.63,0,0,0,509,267q-8.13,0-8.13,5.45a4.29,4.29,0,0,0,.88,2.77,7.66,7.66,0,0,0,2.59,2,24.18,24.18,0,0,0,4.29,1.61c1.73.5,3.73,1.05,6,1.67a77.64,77.64,0,0,1,8.5,2.82,22.52,22.52,0,0,1,6.42,3.79,15.4,15.4,0,0,1,4.07,5.49,19.22,19.22,0,0,1,1.43,7.77A19.44,19.44,0,0,1,533,309.7a17.51,17.51,0,0,1-5.5,6.19,23.24,23.24,0,0,1-7.85,3.42,39.63,39.63,0,0,1-9.15,1.06,50.93,50.93,0,0,1-7.39-.56,52.09,52.09,0,0,1-7.4-1.61,60.19,60.19,0,0,1-7-2.54,39.64,39.64,0,0,1-6.24-3.42L489.14,299a12.82,12.82,0,0,0,2.41,1.76,36.8,36.8,0,0,0,5,2.59,52.28,52.28,0,0,0,6.7,2.31,28.46,28.46,0,0,0,7.49,1q8,0,8-4.9a4.11,4.11,0,0,0-1.2-3,11.37,11.37,0,0,0-3.33-2.18,38,38,0,0,0-5-1.8q-2.91-.82-6.33-1.85a54,54,0,0,1-7.85-3,20.73,20.73,0,0,1-5.5-3.74,13.47,13.47,0,0,1-3.23-4.9,18,18,0,0,1-1.07-6.47,20.66,20.66,0,0,1,1.94-9.15,19.82,19.82,0,0,1,5.27-6.7,23,23,0,0,1,7.72-4.11,30.74,30.74,0,0,1,9.28-1.39,35.42,35.42,0,0,1,6.75.65,52.23,52.23,0,0,1,6.38,1.66,46.71,46.71,0,0,1,5.68,2.31c1.76.87,3.37,1.73,4.85,2.59Z" transform="translate(-4.22 -13.3)"/></g><g class="a"><g class="a"><path class="b" d="M20.82,108.67h9.5l16.6,45.53H36.15L32.62,144H18.45L15,154.2H4.22Zm10.07,28.09-5.32-16.09-5.45,16.09Z" transform="translate(-4.22 -13.3)"/></g><g class="a"><path class="b" d="M81.86,122a6.07,6.07,0,0,0-1.34-1,24.67,24.67,0,0,0-2.89-1.47,26.11,26.11,0,0,0-3.78-1.35,14.92,14.92,0,0,0-4.1-.58q-5.66,0-5.65,3.78a3.05,3.05,0,0,0,.61,1.93,5.55,5.55,0,0,0,1.8,1.38,16.77,16.77,0,0,0,3,1.12c1.2.34,2.58.73,4.17,1.15a54.35,54.35,0,0,1,5.9,2A15.68,15.68,0,0,1,84,131.6a10.65,10.65,0,0,1,2.82,3.81,13.16,13.16,0,0,1,1,5.39,13.56,13.56,0,0,1-1.44,6.51,12.28,12.28,0,0,1-3.82,4.29A16.3,16.3,0,0,1,77.12,154a27.24,27.24,0,0,1-6.35.73,36.38,36.38,0,0,1-5.13-.38,38.06,38.06,0,0,1-5.13-1.12,39.89,39.89,0,0,1-4.84-1.77,26.82,26.82,0,0,1-4.33-2.37L56,139.9a8.8,8.8,0,0,0,1.67,1.22,24.81,24.81,0,0,0,3.49,1.8,37,37,0,0,0,4.65,1.6,19.49,19.49,0,0,0,5.19.7q5.58,0,5.58-3.39a2.88,2.88,0,0,0-.83-2.12,7.9,7.9,0,0,0-2.31-1.51A25.68,25.68,0,0,0,69.91,137c-1.35-.38-2.81-.81-4.4-1.28a39.08,39.08,0,0,1-5.45-2.08,14.57,14.57,0,0,1-3.81-2.6,9.49,9.49,0,0,1-2.25-3.4,12.54,12.54,0,0,1-.73-4.49,14.42,14.42,0,0,1,1.34-6.35,13.77,13.77,0,0,1,3.66-4.64,15.74,15.74,0,0,1,5.35-2.86,21.33,21.33,0,0,1,6.45-1,24.42,24.42,0,0,1,4.68.45,35.28,35.28,0,0,1,4.42,1.15,30.83,30.83,0,0,1,3.94,1.61c1.22.6,2.35,1.19,3.37,1.79Z" transform="translate(-4.22 -13.3)"/><path class="b" d="M125.15,122a6.55,6.55,0,0,0-1.35-1,24.67,24.67,0,0,0-2.89-1.47,26.11,26.11,0,0,0-3.78-1.35,14.92,14.92,0,0,0-4.1-.58q-5.66,0-5.65,3.78a3.05,3.05,0,0,0,.61,1.93,5.55,5.55,0,0,0,1.8,1.38,16.77,16.77,0,0,0,3,1.12c1.2.34,2.59.73,4.17,1.15a54.35,54.35,0,0,1,5.9,2,15.68,15.68,0,0,1,4.45,2.63,10.65,10.65,0,0,1,2.82,3.81,13.16,13.16,0,0,1,1,5.39,13.56,13.56,0,0,1-1.44,6.51,12.28,12.28,0,0,1-3.82,4.29A16.3,16.3,0,0,1,120.4,154a27.24,27.24,0,0,1-6.35.73,36.38,36.38,0,0,1-5.13-.38,38.06,38.06,0,0,1-5.13-1.12A39.89,39.89,0,0,1,99,151.44a26.82,26.82,0,0,1-4.33-2.37l4.62-9.17a8.8,8.8,0,0,0,1.67,1.22,24.81,24.81,0,0,0,3.49,1.8,37,37,0,0,0,4.65,1.6,19.49,19.49,0,0,0,5.19.7q5.58,0,5.58-3.39a2.88,2.88,0,0,0-.83-2.12,7.9,7.9,0,0,0-2.31-1.51,25.68,25.68,0,0,0-3.49-1.25c-1.35-.38-2.81-.81-4.4-1.28a39.08,39.08,0,0,1-5.45-2.08,14.57,14.57,0,0,1-3.81-2.6,9.49,9.49,0,0,1-2.25-3.4,12.54,12.54,0,0,1-.73-4.49,14.42,14.42,0,0,1,1.34-6.35,13.77,13.77,0,0,1,3.66-4.64,15.74,15.74,0,0,1,5.35-2.86,21.33,21.33,0,0,1,6.45-1,24.42,24.42,0,0,1,4.68.45,35.28,35.28,0,0,1,4.42,1.15,31.59,31.59,0,0,1,4,1.61c1.21.6,2.34,1.19,3.36,1.79Z" transform="translate(-4.22 -13.3)"/><path class="b" d="M161.05,154.58a21.22,21.22,0,0,1-9.23-2,22.86,22.86,0,0,1-7.12-5.23,23.69,23.69,0,0,1-4.58-7.4,23.38,23.38,0,0,1-1.64-8.6,23.1,23.1,0,0,1,13.66-21.06,21.77,21.77,0,0,1,9.1-1.89,21.13,21.13,0,0,1,9.24,2,22.3,22.3,0,0,1,7.11,5.25,24,24,0,0,1,6.16,15.91,22.75,22.75,0,0,1-1.7,8.65,23,23,0,0,1-11.89,12.44A21.53,21.53,0,0,1,161.05,154.58ZM149.19,131.5a17.18,17.18,0,0,0,.77,5.1,13.39,13.39,0,0,0,2.28,4.39,11.17,11.17,0,0,0,3.75,3.08,11,11,0,0,0,5.13,1.15,10.75,10.75,0,0,0,5.25-1.22,11.23,11.23,0,0,0,3.72-3.17,13.9,13.9,0,0,0,2.21-4.42,17.28,17.28,0,0,0,.74-5,16.75,16.75,0,0,0-.77-5.09,12.76,12.76,0,0,0-2.31-4.36,11.4,11.4,0,0,0-3.75-3,11.06,11.06,0,0,0-5.09-1.12,10.92,10.92,0,0,0-5.23,1.19,11.46,11.46,0,0,0-3.72,3.11,13.12,13.12,0,0,0-2.24,4.39A17.16,17.16,0,0,0,149.19,131.5Z" transform="translate(-4.22 -13.3)"/><path class="b" d="M191.06,131.05a22.87,22.87,0,0,1,1.54-8.17,22.12,22.12,0,0,1,4.49-7.28,22.6,22.6,0,0,1,7.18-5.19,22.3,22.3,0,0,1,9.62-2A21.61,21.61,0,0,1,225,111.18a17.79,17.79,0,0,1,7,7.18L224,124a9.29,9.29,0,0,0-1.95-3,10.9,10.9,0,0,0-2.6-1.93,10.56,10.56,0,0,0-2.88-1,15.31,15.31,0,0,0-2.89-.29,10.9,10.9,0,0,0-5.26,1.22,11.61,11.61,0,0,0-3.72,3.14,13.14,13.14,0,0,0-2.18,4.36,17.66,17.66,0,0,0-.7,4.94,16.21,16.21,0,0,0,.83,5.19,14,14,0,0,0,2.41,4.43,11.52,11.52,0,0,0,3.78,3,10.79,10.79,0,0,0,5,1.12,12.57,12.57,0,0,0,2.92-.35,11.69,11.69,0,0,0,2.88-1.09,10.26,10.26,0,0,0,2.53-1.92,9,9,0,0,0,1.86-2.92l8.59,5.06a13.19,13.19,0,0,1-3,4.49,18.86,18.86,0,0,1-4.65,3.34,25.47,25.47,0,0,1-11.35,2.75,20.48,20.48,0,0,1-9.07-2,23.07,23.07,0,0,1-7.12-5.36,24.34,24.34,0,0,1-4.62-7.57A23.63,23.63,0,0,1,191.06,131.05Z" transform="translate(-4.22 -13.3)"/><path class="b" d="M241.65,154.2V108.67h10.51V154.2Z" transform="translate(-4.22 -13.3)"/></g><g class="a"><path class="b" d="M279,108.67h9.48l16.61,45.53H294.31L290.78,144H276.61l-3.46,10.2H262.38Zm10.06,28.09-5.32-16.09-5.45,16.09Z" transform="translate(-4.22 -13.3)"/></g><g class="a"><path class="b" d="M343.75,117.91H329.9V154.2H319.38V117.91H305.47v-9.24h38.28Z" transform="translate(-4.22 -13.3)"/><path class="b" d="M352.73,154.2V108.67h10.51V154.2Z" transform="translate(-4.22 -13.3)"/><path class="b" d="M395.75,154.58a21.19,21.19,0,0,1-9.23-2,22.75,22.75,0,0,1-7.12-5.23,23.72,23.72,0,0,1-4.59-7.4,23.37,23.37,0,0,1-1.63-8.6,22.57,22.57,0,0,1,1.7-8.65,22.94,22.94,0,0,1,12-12.41,21.74,21.74,0,0,1,9.1-1.89,21.09,21.09,0,0,1,9.23,2,22.46,22.46,0,0,1,7.12,5.25,24.15,24.15,0,0,1,6.16,15.91,22.75,22.75,0,0,1-1.7,8.65,23.4,23.4,0,0,1-4.72,7.34,23,23,0,0,1-7.18,5.1A21.48,21.48,0,0,1,395.75,154.58ZM383.89,131.5a17.17,17.17,0,0,0,.76,5.1,13.78,13.78,0,0,0,2.28,4.39,11.36,11.36,0,0,0,3.75,3.08,11.07,11.07,0,0,0,5.13,1.15,10.78,10.78,0,0,0,5.26-1.22,11.23,11.23,0,0,0,3.72-3.17,13.9,13.9,0,0,0,2.21-4.42,17.62,17.62,0,0,0,.74-5,17.06,17.06,0,0,0-.77-5.09,12.76,12.76,0,0,0-2.31-4.36,11.5,11.5,0,0,0-3.75-3,11.07,11.07,0,0,0-5.1-1.12,10.87,10.87,0,0,0-5.22,1.19,11.46,11.46,0,0,0-3.72,3.11,13,13,0,0,0-2.25,4.39A17.49,17.49,0,0,0,383.89,131.5Z" transform="translate(-4.22 -13.3)"/><path class="b" d="M438.9,128.17v26H428.39V108.67h8.2l21.23,26.74V108.67h10.51V154.2h-8.46Z" transform="translate(-4.22 -13.3)"/></g></g><g class="a"><g class="a"><path class="b" d="M5.82,205.58a22.87,22.87,0,0,1,1.54-8.17,22.29,22.29,0,0,1,4.49-7.28A22.6,22.6,0,0,1,19,184.94a22.3,22.3,0,0,1,9.62-2,21.61,21.61,0,0,1,11.12,2.76,17.79,17.79,0,0,1,7,7.18l-8.08,5.64a9.29,9.29,0,0,0-2-3,10.9,10.9,0,0,0-2.6-1.93,10.56,10.56,0,0,0-2.88-1,15.31,15.31,0,0,0-2.89-.29,10.9,10.9,0,0,0-5.26,1.22,11.71,11.71,0,0,0-3.72,3.14A13.14,13.14,0,0,0,17.23,201a17.66,17.66,0,0,0-.7,4.94,16.49,16.49,0,0,0,.83,5.19,14,14,0,0,0,2.41,4.43,11.62,11.62,0,0,0,3.78,3,10.81,10.81,0,0,0,5,1.12,12.57,12.57,0,0,0,2.92-.35,11.69,11.69,0,0,0,2.88-1.09,10.31,10.31,0,0,0,2.54-1.92,9.17,9.17,0,0,0,1.85-2.92l8.6,5.07A13.42,13.42,0,0,1,44.26,223a18.86,18.86,0,0,1-4.65,3.34,25.66,25.66,0,0,1-11.35,2.76,20.48,20.48,0,0,1-9.07-2,23.07,23.07,0,0,1-7.12-5.36,24.32,24.32,0,0,1-4.61-7.57A23.64,23.64,0,0,1,5.82,205.58Z" transform="translate(-4.22 -13.3)"/></g><g class="a"><path class="b" d="M75.39,229.12a21.23,21.23,0,0,1-9.23-2A22.86,22.86,0,0,1,59,221.9a23.69,23.69,0,0,1-4.58-7.4,23.38,23.38,0,0,1-1.64-8.6,23.1,23.1,0,0,1,13.66-21.06,21.77,21.77,0,0,1,9.1-1.89,21.13,21.13,0,0,1,9.24,2,22.3,22.3,0,0,1,7.11,5.25,24,24,0,0,1,6.16,15.91,22.75,22.75,0,0,1-1.7,8.65A23,23,0,0,1,84.5,227.19,21.53,21.53,0,0,1,75.39,229.12ZM63.53,206a17.13,17.13,0,0,0,.77,5.1,13.56,13.56,0,0,0,2.27,4.39,11.3,11.3,0,0,0,3.76,3.08,11,11,0,0,0,5.13,1.15,10.85,10.85,0,0,0,5.25-1.21,11.37,11.37,0,0,0,3.72-3.18,13.9,13.9,0,0,0,2.21-4.42,17.28,17.28,0,0,0,.74-5,16.75,16.75,0,0,0-.77-5.09,12.76,12.76,0,0,0-2.31-4.36,11.4,11.4,0,0,0-3.75-3,11.06,11.06,0,0,0-5.09-1.12,10.92,10.92,0,0,0-5.23,1.19,11.46,11.46,0,0,0-3.72,3.11A13.12,13.12,0,0,0,64.27,201,17.16,17.16,0,0,0,63.53,206Z" transform="translate(-4.22 -13.3)"/><path class="b" d="M117.84,202.7v26H107.32V183.21h8.21l21.22,26.73V183.21h10.52v45.52h-8.46Z" transform="translate(-4.22 -13.3)"/><path class="b" d="M186.45,196.54a6.55,6.55,0,0,0-1.35-1,24.67,24.67,0,0,0-2.89-1.47,26.11,26.11,0,0,0-3.78-1.35,14.92,14.92,0,0,0-4.1-.58c-3.76,0-5.65,1.26-5.65,3.78a3.05,3.05,0,0,0,.61,1.93,5.55,5.55,0,0,0,1.8,1.38,16.77,16.77,0,0,0,3,1.12c1.2.34,2.59.73,4.17,1.15a54.35,54.35,0,0,1,5.9,2,15.54,15.54,0,0,1,4.45,2.63,10.65,10.65,0,0,1,2.82,3.81,13.13,13.13,0,0,1,1,5.39,13.56,13.56,0,0,1-1.44,6.51,12.28,12.28,0,0,1-3.82,4.29,16.3,16.3,0,0,1-5.45,2.38,27.24,27.24,0,0,1-6.35.73,35.05,35.05,0,0,1-5.13-.38,38.06,38.06,0,0,1-5.13-1.12,39.89,39.89,0,0,1-4.84-1.77,26.82,26.82,0,0,1-4.33-2.37l4.62-9.17a8.8,8.8,0,0,0,1.67,1.22,24.81,24.81,0,0,0,3.49,1.8,37,37,0,0,0,4.65,1.6,19.51,19.51,0,0,0,5.2.7q5.56,0,5.57-3.39a2.84,2.84,0,0,0-.83-2.12,7.9,7.9,0,0,0-2.31-1.51,25.68,25.68,0,0,0-3.49-1.25c-1.35-.38-2.81-.81-4.39-1.28a38.13,38.13,0,0,1-5.45-2.08,14.46,14.46,0,0,1-3.82-2.6,9.33,9.33,0,0,1-2.24-3.4,12.32,12.32,0,0,1-.74-4.49,14.42,14.42,0,0,1,1.34-6.35,13.9,13.9,0,0,1,3.66-4.65,16.07,16.07,0,0,1,5.35-2.85,21.33,21.33,0,0,1,6.45-1,24.42,24.42,0,0,1,4.68.45,35.28,35.28,0,0,1,4.42,1.15A31.59,31.59,0,0,1,187.7,186c1.21.59,2.34,1.19,3.36,1.79Z" transform="translate(-4.22 -13.3)"/><path class="b" d="M233.7,219.5v9.23h-32V183.21h31.41v9.23h-20.9v8.85h18v8.52h-18v9.69Z" transform="translate(-4.22 -13.3)"/></g><g class="a"><path class="b" d="M244.29,228.73V183.21h20.52a13.2,13.2,0,0,1,5.93,1.34,15.58,15.58,0,0,1,4.71,3.53,16.39,16.39,0,0,1,3.11,4.94,14.58,14.58,0,0,1,1.12,5.57,16.18,16.18,0,0,1-.51,4.08,15.72,15.72,0,0,1-1.47,3.68,13.79,13.79,0,0,1-2.34,3.11,14,14,0,0,1-3.11,2.34l10,16.93H270.39l-8.72-14.68h-6.86v14.68Zm10.52-23.85h9.61a4,4,0,0,0,3.21-1.77,7.21,7.21,0,0,0,1.35-4.52,6.36,6.36,0,0,0-1.54-4.48,4.5,4.5,0,0,0-3.34-1.67h-9.29Z" transform="translate(-4.22 -13.3)"/></g><g class="a"><path class="b" d="M295.78,183.21l10.71,32.31,10.58-32.31h11.09l-17.24,45.52h-8.85l-17.44-45.52Z" transform="translate(-4.22 -13.3)"/></g><g class="a"><path class="b" d="M344.32,183.21h9.5l16.6,45.52H359.65l-3.53-10.19H342l-3.46,10.19H327.72Zm10.07,28.08-5.32-16.09-5.45,16.09Z" transform="translate(-4.22 -13.3)"/></g><g class="a"><path class="b" d="M408.64,192.44H394.79v36.29H384.27V192.44H370.36v-9.23h38.28Z" transform="translate(-4.22 -13.3)"/><path class="b" d="M416.91,228.73V183.21h10.52v45.52Z" transform="translate(-4.22 -13.3)"/><path class="b" d="M459.23,229.12a21.27,21.27,0,0,1-9.24-2,22.71,22.71,0,0,1-7.11-5.23,23.72,23.72,0,0,1-4.59-7.4,23.37,23.37,0,0,1-1.63-8.6,22.57,22.57,0,0,1,1.7-8.65,23,23,0,0,1,11.95-12.41,21.82,21.82,0,0,1,9.11-1.89,21.09,21.09,0,0,1,9.23,2,22.46,22.46,0,0,1,7.12,5.25,23.66,23.66,0,0,1,4.55,7.44,23.4,23.4,0,0,1,1.61,8.47,22.75,22.75,0,0,1-1.7,8.65,23.4,23.4,0,0,1-4.72,7.34,23.07,23.07,0,0,1-7.18,5.1A21.49,21.49,0,0,1,459.23,229.12ZM447.36,206a17.13,17.13,0,0,0,.77,5.1,13.78,13.78,0,0,0,2.28,4.39,11.26,11.26,0,0,0,3.75,3.08,11.07,11.07,0,0,0,5.13,1.15,10.89,10.89,0,0,0,5.26-1.21,11.58,11.58,0,0,0,3.72-3.18,13.9,13.9,0,0,0,2.21-4.42,17.62,17.62,0,0,0,.74-5,17.06,17.06,0,0,0-.77-5.09,12.76,12.76,0,0,0-2.31-4.36,11.61,11.61,0,0,0-3.75-3,11.13,11.13,0,0,0-5.1-1.12,10.87,10.87,0,0,0-5.22,1.19,11.46,11.46,0,0,0-3.72,3.11A13,13,0,0,0,448.1,201,17.5,17.5,0,0,0,447.36,206Z" transform="translate(-4.22 -13.3)"/><path class="b" d="M501.68,202.7v26H491.16V183.21h8.21l21.22,26.73V183.21h10.52v45.52h-8.47Z" transform="translate(-4.22 -13.3)"/></g></g></svg>