<svg xmlns="http://www.w3.org/2000/svg" viewBox="0 0 1181.88 343.93"><path d="M561.42,228.42l-29.31,2.11,2.69,37.29c-187.69,10.49-305.12,8.28-306.31,8.25l-13.75-.3-.19,11.88-11.72-7.76-12.67,25.26-40.57,3.57-5.52-18.3-11.51-4.56-.86-8-26.4-57.5L86.2,232l14-65.52-21.46-8.41-13.8-15.85L55.1,126.83,42.39,116.69l1.14-10.4-13.41-24L34.53,35.6c206.36,19.16,425.71,7.24,483.9,3.46l9.16,138.67H485.34v.08h-267a33.25,33.25,0,0,1-12.58-2.39,32.06,32.06,0,0,1-17.52-16.9,32.51,32.51,0,0,1,0-25.63A32.09,32.09,0,0,1,205.73,116a33.66,33.66,0,0,1,35.66,6.72,31.88,31.88,0,0,1,7.17,10.18,30.47,30.47,0,0,1,2.6,11.51H282.8a60.64,60.64,0,0,0-4.75-22.85A59.66,59.66,0,0,0,264.7,102a61.37,61.37,0,0,0-20.46-13,74,74,0,0,0-51.94,0,60.88,60.88,0,0,0,0,113.45,69.61,69.61,0,0,0,26,4.71H559L545.8,7.59,531,8.75C528.32,9,263.47,29.13,22.76,5L8.06,3.48,0,88.65l13.3,23.78-1.87,17.12,21.5,17.21,8.39,13.13,20,22.92,5,1.94-9.6,45-1.87,23.62,23.06,18.16,14.58-8.91L103,285.75l2.25,20.91L120,312.51l8.24,27.28,83.95-6.9,3.5-5.91L243,343.93l-.3-38.32c38.5.26,150.12-.05,308.73-9.3l14.87-.87Z" transform="translate(0 0)" style="fill:#38466b"/><text transform="translate(1124.69 143.14)" style="isolation:isolate;font-size:49.040000915527344px;fill:#38466b;font-family:AGaramondPro-BoldItalic, Adobe Garamond Pro;font-weight:700;font-style:italic">of</text><g style="isolation:isolate"><text transform="translate(640.92 80.63)" style="isolation:isolate;font-size:94.30000305175781px;fill:#38466b;font-family:Raleway-ExtraBold, Raleway;font-weight:800;letter-spacing:0.11000049352391447em">MON</text><text transform="translate(895.24 80.63)" style="isolation:isolate;font-size:94.30000305175781px;fill:#38466b;font-family:Raleway-ExtraBold, Raleway;font-weight:800;letter-spacing:0.012002501599907444em">T</text><text transform="translate(958.14 80.63)" style="isolation:isolate;font-size:94.30000305175781px;fill:#38466b;font-family:Raleway-ExtraBold, Raleway;font-weight:800;letter-spacing:0.11000049352391447em">AN</text><text transform="translate(1112.51 80.63)" style="isolation:isolate;font-size:94.30000305175781px;fill:#38466b;font-family:Raleway-ExtraBold, Raleway;font-weight:800;letter-spacing:0.049009351873651415em">A</text></g><text transform="translate(640.92 319.63)" style="isolation:isolate;font-size:92.41000366210938px;fill:#38466b;font-family:Raleway-ExtraBold, Raleway;font-weight:800;letter-spacing:0.079997595845039em">DI<tspan x="108.67" y="0" style="letter-spacing:0.07501491864015976em">S</tspan><tspan x="172.44" y="0">TRI</tspan><tspan x="341.64" y="0" style="letter-spacing:0.07300705295844807em">C</tspan><tspan x="411.96" y="0" style="letter-spacing:0.08000287970209614em">TS</tspan></text><g style="isolation:isolate"><text transform="translate(640.92 154.2)" style="isolation:isolate;font-size:64.12000274658203px;fill:#38466b;font-family:Raleway-ExtraBold, Raleway;font-weight:800;letter-spacing:0.018009749014110215em">A</text><text transform="translate(687.02 154.2)" style="isolation:isolate;font-size:64.12000274658203px;fill:#38466b;font-family:Raleway-ExtraBold, Raleway;font-weight:800;letter-spacing:0.059999497878297836em">SSOCI</text><text transform="translate(899.08 154.2)" style="isolation:isolate;font-size:64.12000274658203px;fill:#38466b;font-family:Raleway-ExtraBold, Raleway;font-weight:800;letter-spacing:-0.030993521559166418em">A</text><text transform="translate(941.53 154.2)" style="isolation:isolate;font-size:64.12000274658203px;fill:#38466b;font-family:Raleway-ExtraBold, Raleway;font-weight:800;letter-spacing:0.059999497878297836em">TION</text></g><g style="isolation:isolate"><text transform="translate(640.92 228.73)" style="isolation:isolate;font-size:64.12000274658203px;fill:#38466b;font-family:Raleway-ExtraBold, Raleway;font-weight:800;letter-spacing:0.040002203624152625em">C</text><text transform="translate(687.92 228.73)" style="isolation:isolate;font-size:64.12000274658203px;fill:#38466b;font-family:Raleway-ExtraBold, Raleway;font-weight:800;letter-spacing:0.048995655457414425em">ONSE</text><text transform="translate(876.76 228.73)" style="isolation:isolate;font-size:64.12000274658203px;fill:#38466b;font-family:Raleway-ExtraBold, Raleway;font-weight:800;letter-spacing:0.029995941381217816em">R</text><text transform="translate(921.65 228.73)" style="isolation:isolate;font-size:64.12000274658203px;fill:#38466b;font-family:Raleway-ExtraBold, Raleway;font-weight:800;letter-spacing:-0.03400149232473662em">V</text><text transform="translate(964.42 228.73)" style="isolation:isolate;font-size:64.12000274658203px;fill:#38466b;font-family:Raleway-ExtraBold, Raleway;font-weight:800;letter-spacing:-0.04099216868623902em">A</text><text transform="translate(1006.42 228.73)" style="isolation:isolate;font-size:64.12000274658203px;fill:#38466b;font-family:Raleway-ExtraBold, Raleway;font-weight:800;letter-spacing:0.048995655457414425em">TION</text></g></svg>