<svg xmlns="http://www.w3.org/2000/svg" viewBox="0 0 84.58 51.25"><defs><style>.a{fill:#38466b;}</style></defs><path class="a" d="M91.53,59.77l-4.84.35.4,5.53c-19.43,1.08-33.77,1.24-40.6,1.24-3,0-4.55,0-4.6,0l-2.29,0,0,1.57L38,67.32,36,71.19l-5.68.5-.8-2.64-1.68-.66-.13-1.12-4-8.78-2.58,1.57,2-9.37-3.28-1.26-2-2.32-1.52-2.35-1.78-1.42.17-1.48-2-3.57.62-6.61c11.19,1,23.77,1.55,37.4,1.55,15.89,0,28.89-.72,34-1L86,52.27H40.34a4.69,4.69,0,0,1-1.74-.34,4.5,4.5,0,0,1-2.47-2.38,4.62,4.62,0,0,1,0-3.61,4.5,4.5,0,0,1,2.46-2.37,4.74,4.74,0,0,1,5,.94,4.41,4.41,0,0,1,1,1.44A4.24,4.24,0,0,1,45,47.57v.24h5.18v-.25a9.27,9.27,0,0,0-.73-3.48,9.11,9.11,0,0,0-2-3,9.51,9.51,0,0,0-3.13-2,11.29,11.29,0,0,0-7.88,0,9.28,9.28,0,0,0,0,17.3,10.78,10.78,0,0,0,3.94.71H91.2L89.21,27l-2.45.19c-.13,0-15.72,1.21-36.06,1.21-14.46,0-27.69-.6-39.33-1.76l-2.43-.25-1.23,13,2,3.53-.29,2.6,3.24,2.58,1.27,2L17,53.49l.54.22-1.38,6.5-.29,3.64,3.66,2.88,2.07-1.27L23,68.57l.35,3.25,2.22.88,1.24,4.13,12.79-1,.45-.77,4.22,2.61,0-5.88h2.27c7.28,0,22.59-.18,43.32-1.39l2.46-.15Z" transform="translate(-7.71 -26.38)"/></svg>